<?xml version="1.0" encoding="utf-8"?>
<!-- Generator: Adobe Illustrator 23.0.1, SVG Export Plug-In . SVG Version: 6.00 Build 0)  -->
<svg version="1.1" id="Arrow_1_" xmlns="http://www.w3.org/2000/svg" xmlns:xlink="http://www.w3.org/1999/xlink" x="0px" y="0px"
	 viewBox="0 0 500 500" style="enable-background:new 0 0 500 500;" xml:space="preserve">
<g>
	<g>
		<g>
			<g>
				<path d="M375,62.5h-31.2c-17.2,0-31.2,14.1-31.2,31.2v109.4l-150.4-128c-15.6-16.8-41-16.8-56.6,0c-7.7,8.5-11.7,19.5-11.7,30.4
					v289c0,11.1,4,22,11.7,30.4c15.6,16.8,41,16.8,56.6,0l150.4-127.8v109.2c0,17.2,14.1,31.2,31.2,31.2H375
					c17.2,0,31.2-14.1,31.2-31.2V93.7C406.2,76.5,392.2,62.5,375,62.5"/>
			</g>
		</g>
	</g>
</g>
</svg>
