<?xml version="1.0" encoding="utf-8"?>
<!-- Generator: Adobe Illustrator 23.0.1, SVG Export Plug-In . SVG Version: 6.00 Build 0)  -->
<svg version="1.1" id="Arrow_1_" xmlns="http://www.w3.org/2000/svg" xmlns:xlink="http://www.w3.org/1999/xlink" x="0px" y="0px"
	 viewBox="0 0 500 500" style="enable-background:new 0 0 500 500;" xml:space="preserve">
<g>
	<g>
		<g>
			<g>
				<path d="M125.1,62.5h31.2c17.2,0,31.2,14.1,31.2,31.2v109.4l150.4-128c15.6-16.8,41-16.8,56.6,0c7.7,8.5,11.7,19.5,11.7,30.4
					v289c0,11.1-4,22-11.7,30.4c-15.6,16.8-41,16.8-56.6,0L187.5,297.1v109.2c0,17.2-14.1,31.2-31.2,31.2h-31.2
					c-17.2,0-31.2-14.1-31.2-31.2V93.7C93.9,76.5,107.9,62.5,125.1,62.5"/>
			</g>
		</g>
	</g>
</g>
</svg>
